<svg height="512pt" viewBox="0 -32 512 512" width="512pt" xmlns="http://www.w3.org/2000/svg"><path d="m15.132812 79.246094h120.65625v-15.132813h-120.65625v-48.980469h88.601563v-15.132812h-103.734375v447.886719h368.195312v-15.132813h-353.0625zm0 0"/><path d="m127.777344 0v15.132812h369.089844v48.980469h-256.894532v15.132813h256.894532v353.507812h-104.628907v15.132813h119.761719v-447.886719zm0 0"/><path d="m31.609375 32.058594h16.027344v15.132812h-16.027344zm0 0"/><path d="m63.664062 32.058594h16.027344v15.132812h-16.027344zm0 0"/><path d="m95.71875 32.058594h16.03125v15.132812h-16.03125zm0 0"/><path d="m135.789062 32.058594h344.601563v15.132812h-344.601563zm0 0"/><path d="m47.1875 111.300781h24.492188v-15.132812h-39.625v39.621093h15.132812zm0 0"/><path d="m32.054688 151.816406h15.132812v16.03125h-15.132812zm0 0"/><path d="m32.054688 183.875h15.132812v16.027344h-15.132812zm0 0"/><path d="m479.945312 127.777344v-31.609375h-39.625v15.132812h24.492188v16.476563zm0 0"/><path d="m296.515625 128.222656v47.191406h143.359375v-47.191406zm128.226563 32.058594h-113.09375v-16.925781h113.09375zm0 0"/><path d="m296.070312 200.351562h144.25v15.132813h-144.25zm0 0"/><path d="m296.070312 232.40625h144.25v15.132812h-144.25zm0 0"/><path d="m296.070312 264.460938h144.25v15.132812h-144.25zm0 0"/><path d="m424.292969 304.53125h16.027343v15.132812h-16.027343zm0 0"/><path d="m392.238281 304.53125h16.027344v15.132812h-16.027344zm0 0"/><path d="m360.183594 304.53125h16.027344v15.132812h-16.027344zm0 0"/><path d="m40.070312 391.789062h431.859376v-55.203124h-431.859376zm320.558594-15.132812h-40.964844v-24.9375h40.964844zm15.132813-24.933594h32.953125v24.9375h-32.953125zm-71.230469 24.933594h-40.964844v-24.9375h40.964844zm-56.097656 0h-40.964844v-24.9375h40.964844zm-56.097656 0h-40.964844v-24.9375h40.964844zm-56.097657 0h-32.953125v-24.9375h32.953125zm320.558594 0h-32.949219v-24.9375h32.949219zm-401.59375-24.933594h32.949219v24.9375h-32.949219zm0 0"/><path d="m191.886719 215.484375c.472656 0 .933593-.027344 1.402343-.035156l-38.636718 38.636719-66.101563-66.105469v-23.296875h26.433594v-15.132813h-41.566406v44.699219l70.535156 70.535156-17.003906 17 27.703125 27.703125 23.332031-23.335937 38.535156 29.46875 22.96875-22.96875-29.46875-38.535156 23.335938-23.332032-18.949219-18.945312c28.523438-9.464844 49.160156-36.378906 49.160156-68.035156 0-39.523438-32.15625-71.679688-71.679687-71.679688-39.523438 0-71.675781 32.15625-71.675781 71.679688 0 39.523437 32.152343 71.679687 71.675781 71.679687zm27.53125 75.835937-4.230469 4.230469-26.40625-20.191406 10.445312-10.445313zm-64.765625-3.234374-6.300782-6.300782 57.300782-57.300781 6.300781 6.300781zm37.234375-200.828126c31.179687 0 56.546875 25.367188 56.546875 56.546876 0 31.179687-25.367188 56.542968-56.546875 56.542968-31.175781 0-56.542969-25.363281-56.542969-56.542968 0-31.179688 25.363281-56.546876 56.542969-56.546876zm0 0"/><path d="m221.28125 149.15625-10.703125-10.703125-11.125 11.125v-37.828125h-15.132813v37.828125l-11.125-11.125-10.699218 10.703125 29.390625 29.390625zm0 0"/></svg>